<?xml version="1.0" encoding="UTF-8" standalone="no"?>
<!-- Created with Inkscape (http://www.inkscape.org/) -->

<svg
   xmlns:dc="http://purl.org/dc/elements/1.1/"
   xmlns:cc="http://creativecommons.org/ns#"
   xmlns:rdf="http://www.w3.org/1999/02/22-rdf-syntax-ns#"
   xmlns:svg="http://www.w3.org/2000/svg"
   xmlns="http://www.w3.org/2000/svg"
   xmlns:sodipodi="http://sodipodi.sourceforge.net/DTD/sodipodi-0.dtd"
   xmlns:inkscape="http://www.inkscape.org/namespaces/inkscape"
   width="174.96669mm"
   height="83.776253mm"
   viewBox="0 0 174.96669 83.776253"
   version="1.1"
   id="svg8"
   inkscape:version="0.92.1 r15371"
   sodipodi:docname="aux_logo.svg">
  <defs
     id="defs2" />
  <sodipodi:namedview
     id="base"
     pagecolor="#ffffff"
     bordercolor="#666666"
     borderopacity="1.0"
     inkscape:pageopacity="0.0"
     inkscape:pageshadow="2"
     inkscape:zoom="1.9704154"
     inkscape:cx="338.52709"
     inkscape:cy="152.98018"
     inkscape:document-units="mm"
     inkscape:current-layer="layer2"
     showgrid="true"
     inkscape:snap-grids="false"
     inkscape:snap-to-guides="true"
     inkscape:snap-global="false"
     inkscape:snap-intersection-paths="true"
     inkscape:snap-bbox="false"
     inkscape:bbox-paths="true"
     inkscape:window-width="1920"
     inkscape:window-height="1051"
     inkscape:window-x="-9"
     inkscape:window-y="-9"
     inkscape:window-maximized="1"
     fit-margin-top="0"
     fit-margin-left="0"
     fit-margin-right="0"
     fit-margin-bottom="0">
    <inkscape:grid
       type="xygrid"
       id="grid4485"
       originx="-8.0316983"
       originy="-117.40561" />
  </sodipodi:namedview>
  <metadata
     id="metadata5">
    <rdf:RDF>
      <cc:Work
         rdf:about="">
        <dc:format>image/svg+xml</dc:format>
        <dc:type
           rdf:resource="http://purl.org/dc/dcmitype/StillImage" />
        <dc:title></dc:title>
      </cc:Work>
    </rdf:RDF>
  </metadata>
  <g
     inkscape:label="Grid"
     inkscape:groupmode="layer"
     id="layer1"
     style="display:none"
     transform="translate(-8.0316985,-95.818136)">
    <path
       style="fill:none;stroke:#000000;stroke-width:0.26458332px;stroke-linecap:butt;stroke-linejoin:miter;stroke-opacity:1"
       d="M 26.458333,95.916667 H 179.91666"
       id="path4489"
       inkscape:connector-curvature="0" />
    <path
       style="fill:none;stroke:#000000;stroke-width:0.26458332px;stroke-linecap:butt;stroke-linejoin:miter;stroke-opacity:1"
       d="M 26.458333,159.41667 H 179.91666"
       id="path4491"
       inkscape:connector-curvature="0" />
    <path
       style="fill:none;stroke:#000000;stroke-width:0.26458332px;stroke-linecap:butt;stroke-linejoin:miter;stroke-opacity:1"
       d="M 26.458333,127.66667 H 179.91666 Z"
       id="path4493"
       inkscape:connector-curvature="0" />
  </g>
  <g
     inkscape:groupmode="layer"
     id="layer3"
     inkscape:label="Cursive"
     style="display:none"
     transform="translate(-8.0316985,-95.818136)">
    <path
       style="display:inline;opacity:1;fill:#0a0702;fill-opacity:1;stroke:#3d5a98;stroke-width:0;stroke-miterlimit:4;stroke-dasharray:none;stroke-opacity:1"
       id="path4517"
       d="m 78.340137,107.97693 c -0.405879,-0.92538 -1.030581,-1.73612 -1.744136,-2.44609 -0.801584,-0.95141 -1.858042,-1.58396 -2.942193,-2.16045 -0.705996,-0.38192 -1.483836,-0.56325 -2.23524,-0.81596 -0.390789,-0.13143 -0.765871,-0.30585 -1.152408,-0.4493 -0.735484,-0.29683 -1.519,-0.45087 -2.270258,-0.69046 -0.392065,-0.12504 -0.76695,-0.2988 -1.153263,-0.44061 -1.084569,-0.40216 -2.233779,-0.51295 -3.379046,-0.57828 -1.18513,-0.021 -2.375356,-0.0929 -3.556627,0.0195 -0.869527,0.15251 -1.791738,0.0631 -2.637539,0.34805 -0.19417,0.0654 -1.338657,0.59741 -1.510308,0.67628 -1.416563,0.51042 -2.772799,1.12276 -4.103288,1.82505 8.244909,-4.801506 2.959407,-1.7876 1.209165,-0.40982 -1.282981,0.99987 -2.388405,2.18413 -3.446788,3.41192 -1.029232,1.2484 -2.171539,2.40966 -3.052855,3.77078 -0.850056,1.48554 -1.786057,2.91483 -2.740832,4.33392 -1.047375,1.56867 -2.216169,3.05168 -3.290076,4.60037 -1.077118,1.57659 -2.052756,3.22645 -2.96623,4.90284 -1.117153,1.73531 -2.098688,3.53975 -3.055662,5.36699 -1.092142,1.92326 -1.934583,3.96997 -2.85795,5.9758 -0.90361,1.76407 -1.341369,3.69006 -1.865619,5.58377 -0.544389,1.77798 -0.931903,3.58374 -1.152494,5.42863 -0.188399,1.55664 -0.221498,3.04399 0.08452,4.58362 0.388422,1.30383 1.441797,2.31834 2.445584,3.1891 1.235533,1.0921 2.706992,1.79383 4.26181,2.30111 1.404946,0.68336 2.894129,1.10139 4.427646,1.36606 1.303896,0.15226 2.654689,0.32317 3.966014,0.12718 0.306134,-0.0457 0.601919,-0.1447 0.902878,-0.21705 1.935443,-0.44407 3.666646,-1.47618 5.433665,-2.34354 0.27849,-0.13311 0.551392,-0.2786 0.835467,-0.39933 2.022753,-0.85968 -0.247568,0.23583 1.680919,-0.75485 0.263607,-0.13542 1.051396,-0.54631 0.796076,-0.39585 -6.948532,4.09477 -4.708255,2.72304 -3.229578,1.81032 1.624314,-0.91876 3.031897,-2.1418 4.412075,-3.3841 1.463191,-1.268 2.941487,-2.52011 4.381317,-3.81471 1.176867,-1.06915 2.304042,-2.19218 3.421968,-3.32245 1.465196,-1.27802 2.616599,-2.8339 3.807245,-4.3568 1.046263,-1.4188 2.058755,-2.85431 3.194408,-4.20586 1.156813,-1.38918 2.234199,-2.85489 3.227263,-4.36586 0.551529,-0.96762 1.237231,-1.85739 1.751806,-2.84692 0.161631,-0.31082 0.571894,-1.25492 0.707019,-1.56108 0.66099,-1.46073 1.344568,-2.91195 2.073315,-4.34025 0.669772,-1.22227 1.077489,-2.55424 1.659091,-3.8169 0.528844,-1.15821 0.910225,-2.37223 1.322575,-3.57447 0.562679,-1.40706 1.133364,-2.79648 1.564603,-4.25165 0.108585,-0.96942 0.815994,-1.80407 0.940359,-2.75924 1.70457,-0.79395 3.353993,-1.71904 5.113707,-2.38185 0.09022,-0.034 0.009,0.42744 -0.223509,0.95274 -0.293031,0.66203 -0.639564,1.29715 -0.927412,1.9629 -0.925745,1.57596 -1.403054,3.33588 -2.047063,5.02897 -0.597321,1.52158 -1.344776,2.97539 -1.945629,4.49639 -0.379056,1.21846 -0.940329,2.36718 -1.328738,3.58155 -0.509815,1.32844 -1.245489,2.54874 -1.842293,3.8381 -0.740948,1.21552 -1.244693,2.53058 -1.754344,3.85133 -0.711327,1.43618 -1.294892,2.91467 -1.867514,4.40902 -0.807892,1.89577 -1.28402,3.89771 -1.831554,5.87701 -0.47856,1.84911 -0.754288,3.73681 -1.216472,5.58882 -0.447244,1.7559 -0.597273,3.56133 -0.676786,5.36528 -0.04762,1.19774 -0.109326,2.44653 0.361638,3.58065 0.159837,0.3849 0.470397,0.78815 0.706673,1.1249 0.854011,0.98352 2.010312,1.1972 3.241199,1.3177 1.083765,0.0264 2.155139,-0.10049 3.156592,-0.54528 0.502211,-0.22306 0.95213,-0.54895 1.429034,-0.82195 -7.362045,4.34465 -4.122153,2.56116 -2.724256,1.17761 0.529069,-0.52363 0.992081,-1.12365 1.483899,-1.68181 0.89139,-1.1172 1.737048,-2.26728 2.674007,-3.34754 1.166471,-1.20632 2.046369,-2.63486 2.983478,-4.01628 0.669441,-0.87197 1.26315,-1.79505 1.85288,-2.72142 0,0 4.979244,-2.1924 4.979244,-2.1924 v 0 c -0.587264,0.93144 -1.134645,1.88787 -1.841156,2.73823 -0.956188,1.3761 -1.802421,2.83086 -2.931123,4.07679 -0.993087,1.02659 -1.804215,2.20116 -2.664264,3.33809 -0.228714,0.24935 -0.779955,0.8444 -0.98941,1.09757 -0.174495,0.21091 -0.317296,0.44803 -0.503073,0.64908 -1.778728,1.92492 -4.403894,3.05501 -6.560166,4.30362 -1.590935,0.85543 -2.981659,1.27754 -4.814107,1.11651 -1.443244,-0.18116 -2.544956,-0.54168 -3.50148,-1.70798 -0.312209,-0.46097 -0.554916,-0.76539 -0.759709,-1.29382 -0.462269,-1.1928 -0.445765,-2.50148 -0.408755,-3.75678 0.06991,-1.83248 0.163698,-3.66637 0.609299,-5.45455 0.14044,-0.56602 0.31148,-1.1245 0.439144,-1.69354 0.291971,-1.30139 0.458095,-2.63301 0.804781,-3.92361 0.54778,-1.98971 1.031012,-4.00018 1.801003,-5.92014 0.962353,-2.51551 -0.226984,0.66533 0.587351,-1.7351 0.312327,-0.92065 0.817467,-1.75926 1.19952,-2.65044 0.563089,-1.29625 0.916797,-2.69354 1.741475,-3.86917 0.576463,-1.28159 1.259482,-2.5005 1.875435,-3.76101 0.311351,-1.25954 0.930291,-2.39472 1.306282,-3.63252 0.610606,-1.54132 1.384324,-3.00304 2.021457,-4.53 0.675875,-1.66628 1.04531,-3.45636 1.983234,-5.01362 1.521971,-3.72751 0.880369,-2.427 6.203492,-5.07283 -0.438988,0.19644 -1.012367,2.18015 -1.179414,2.6714 -0.308949,0.93207 -0.16296,0.4494 -0.433652,1.44931 -0.309938,0.96208 -0.798317,1.85307 -1.125577,2.80782 -0.384657,1.22458 -0.773671,2.44715 -1.278959,3.62824 -0.188966,0.39368 -0.397603,0.77839 -0.568661,1.18017 -0.379235,0.89072 -0.599149,1.84934 -1.120841,2.6798 -0.774751,1.40015 -1.394828,2.88326 -2.112801,4.31312 -0.230505,0.52998 -0.422664,1.07661 -0.666481,1.6006 -0.479046,1.02954 -1.218755,1.90652 -1.773898,2.89173 -0.953897,1.53357 -2.054699,2.9813 -3.148513,4.41538 -0.728536,0.8296 -1.489935,1.67267 -2.126223,2.57622 -0.191458,0.27187 -0.3369,0.57426 -0.528024,0.84637 -0.194262,0.27657 -0.417629,0.53152 -0.626443,0.79728 -1.202828,1.49069 -2.243376,3.126 -3.715711,4.37633 -1.102561,1.15908 -2.254694,2.27383 -3.428883,3.35945 -0.690269,0.64667 -1.443165,1.20079 -2.148327,1.82754 -0.754166,0.67032 -1.43447,1.42992 -2.27271,2.00605 -1.356802,1.2477 -2.719141,2.53213 -4.327144,3.45303 -3.006685,1.9313 -6.108615,3.68057 -9.385805,5.09129 -1.767504,0.89916 -3.559905,1.82536 -5.517375,2.229 -1.670457,0.28431 -3.363182,0.2809 -5.030631,-0.0526 -1.541251,-0.31379 -3.051427,-0.74992 -4.473377,-1.43453 -1.582068,-0.59184 -3.114807,-1.33924 -4.387501,-2.47062 -1.090974,-0.977 -2.209531,-2.05646 -2.650958,-3.49094 -0.273667,-1.57926 -0.335111,-3.16701 -0.104737,-4.75971 0.227404,-1.86724 0.582297,-3.70605 1.123467,-5.50958 0.562996,-1.91864 0.96566,-3.90026 1.897801,-5.69005 0.921848,-2.00317 1.736913,-4.05899 2.81685,-5.98571 0.942279,-1.82243 1.880793,-3.64232 3.018448,-5.35337 0.872096,-1.70981 1.916147,-3.33952 2.948742,-4.95611 1.016034,-1.58417 2.257092,-3.02082 3.29002,-4.59703 0.917522,-1.42315 1.892453,-2.80785 2.71178,-4.29357 0.791853,-1.45128 1.999343,-2.59143 3.036838,-3.86696 1.054031,-1.23079 2.091359,-2.47741 3.375276,-3.48097 2.414624,-2.12111 5.494853,-3.32629 8.153529,-5.073563 1.332479,-0.661606 2.698502,-1.223968 4.082622,-1.767797 0.568079,-0.239769 1.014177,-0.453007 1.615839,-0.605632 0.876525,-0.222348 1.802323,-0.177906 2.692387,-0.303979 1.206381,-0.05588 2.41568,-0.04631 3.621278,0.02811 1.179163,0.09474 2.351447,0.273002 3.458361,0.711589 1.132149,0.409061 2.29521,0.715661 3.424645,1.134245 1.150183,0.42636 2.339657,0.754615 3.426999,1.335397 1.116391,0.62788 2.192052,1.31128 3.048106,2.28216 0.722368,0.73829 1.335686,1.57706 1.869231,2.46014 0,0 -4.839983,2.87229 -4.839983,2.87229 z"
       inkscape:connector-curvature="0" />
    <path
       style="display:inline;opacity:1;fill:#0a0702;fill-opacity:1;stroke:#3d5a98;stroke-width:0;stroke-miterlimit:4;stroke-dasharray:none;stroke-opacity:1"
       id="path4519"
       d="m 86.396157,144.90257 c 0.47022,-1.37222 1.089239,-2.6897 1.627201,-4.03753 0.429342,-1.34273 1.158396,-2.55578 1.675309,-3.86105 0.447112,-1.47063 0.766427,-2.97796 1.247537,-4.43743 0.536305,-1.29014 0.953598,-2.61702 1.390121,-3.94151 0.127027,-0.16152 0.485352,-1.43587 0.650917,-1.53473 1.454902,-0.86868 4.581684,-4.69143 5.30383,-2.19588 0.05853,0.20227 0.04192,0.41904 0.06288,0.62856 -0.03451,1.87669 -0.675171,3.70267 -1.242419,5.47739 -0.39913,1.62497 -1.265542,3.04486 -1.99127,4.53008 -0.673555,1.28517 -1.225849,2.62426 -1.814878,3.94852 -0.673468,1.34745 -1.365009,2.68068 -1.98206,4.05733 -0.644326,1.42543 -0.986531,2.94535 -1.412007,4.44015 -0.37298,1.1511 -0.674322,2.32519 -0.934294,3.50665 -0.233791,1.06267 -0.237458,2.14967 -0.03733,3.21645 0.124331,1.042 0.743884,1.52454 1.506173,2.14581 0.778388,0.47824 1.604496,0.84775 2.436651,1.21881 1.075129,0.31989 2.238695,0.60149 3.371326,0.48905 0.259815,-0.0258 0.51223,-0.10147 0.768347,-0.15221 0.250701,-0.0791 0.500531,-0.16096 0.752102,-0.23723 1.220348,-0.36996 0.399129,-0.038 1.501783,-0.62567 0.241721,-0.12882 0.970734,-0.5075 0.732584,-0.3722 -4.592847,2.6093 -5.197536,3.06885 -3.338351,1.7625 1.266192,-1.12108 2.392907,-2.39658 3.595731,-3.58942 1.11142,-1.30369 2.43245,-2.39486 3.65855,-3.58535 1.2059,-1.12444 2.28355,-2.36783 3.39212,-3.58407 1.32883,-1.39398 2.60023,-2.84036 3.85359,-4.30204 1.05091,-1.34251 1.99796,-2.76191 2.87828,-4.22079 0.81908,-1.13411 1.48608,-2.3599 2.22175,-3.5461 0.68113,-1.03742 1.2325,-2.13949 1.6185,-3.318 0.22417,-1.26875 0.73911,-2.44039 1.23126,-3.62081 0.85567,-2.23874 0.0111,-1.15989 5.20647,-2.6748 0.20277,-0.0591 -0.14977,0.39501 -0.22167,0.59361 -0.29699,0.82029 -0.24334,0.68453 -0.51383,1.55545 -0.56814,1.71276 -1.41816,3.3173 -2.28834,4.89266 -0.78301,1.52126 -1.72131,2.95482 -2.53774,4.45665 -0.71088,1.41438 -1.39375,2.84645 -2.02084,4.30054 -0.57176,1.1386 -1.08977,2.3011 -1.47106,3.51763 -0.20536,1.14907 -0.55586,2.26169 -0.82655,3.39563 -0.23617,1.11838 -0.26518,2.2629 -0.4149,3.39347 -0.16037,1.0806 -0.27181,2.16289 -0.0669,3.24288 0.29444,1.02917 1.12624,1.35441 2.08602,1.55804 1.26212,0.24721 2.13273,-0.18723 3.25146,-0.67292 0.55545,-0.3363 1.13747,-0.62506 1.70475,-0.94004 0.21491,-0.11932 0.85403,-0.48729 0.64039,-0.3657 -4.28514,2.43871 -5.35505,3.1901 -3.39442,1.85993 1.41358,-0.89572 2.83912,-1.76128 4.20713,-2.72692 0.61834,-0.46557 1.21647,-0.95599 1.82925,-1.42876 0,0 5.08145,-2.02229 5.08145,-2.02229 v 0 c -0.6268,0.46171 -1.24847,0.9302 -1.82885,1.45049 -1.38053,0.9506 -2.75193,1.9041 -4.21379,2.7291 -2.61415,1.87894 -5.49281,3.3852 -8.35293,4.85745 -1.13807,0.45704 -2.2651,0.73009 -3.48642,0.40127 -1.13574,-0.34141 -2.02559,-0.90829 -2.41824,-2.0893 -0.21504,-1.13489 -0.18078,-2.27317 0.01,-3.41159 0.14985,-1.14553 0.20207,-2.29827 0.39595,-3.43789 0.23742,-1.15524 0.6545,-2.25874 0.81504,-3.42921 0.33518,-1.25169 0.84913,-2.45482 1.47393,-3.58939 0.61117,-1.48856 1.35506,-2.9242 2.0628,-4.36624 0.75173,-1.53874 1.74286,-2.9388 2.50674,-4.47135 0.91741,-1.51748 1.71098,-3.11545 2.34691,-4.77193 0.0286,-0.11028 0.56047,-2.09925 0.59141,-2.11821 7.57464,-4.64299 5.80068,-4.17939 4.84353,-1.99717 -0.46196,1.18101 -1.07993,2.30674 -1.25998,3.57942 -0.33961,1.21935 -0.84755,2.37471 -1.53072,3.44308 -0.77203,1.1861 -1.43216,2.43437 -2.29684,3.56249 -0.8803,1.49016 -1.84627,2.9246 -2.86545,4.32265 -1.28489,1.43495 -2.51128,2.92195 -3.84161,4.31696 -1.13852,1.17796 -2.12598,2.49904 -3.35647,3.59368 -1.22125,1.21025 -2.58665,2.26486 -3.68216,3.5922 -0.8166,0.8082 -1.66829,1.59822 -2.43191,2.45763 -0.18239,0.20526 -0.33863,0.43304 -0.5241,0.63552 -0.18508,0.20205 -0.39069,0.38428 -0.58604,0.57642 -2.808094,1.92848 -5.711361,4.00436 -9.085473,4.73748 -1.4903,0.1423 -2.980714,-0.002 -4.387366,-0.54199 -0.875453,-0.39269 -1.761741,-0.75886 -2.534793,-1.34083 -0.791252,-0.69079 -1.556591,-1.36996 -1.689986,-2.47964 -0.206285,-1.12826 -0.264062,-2.29 -0.03324,-3.41991 0.230857,-1.20611 0.554254,-2.40056 0.93794,-3.56627 0.495358,-1.50183 0.786244,-3.07222 1.451621,-4.52149 0.304948,-0.75776 0.617669,-1.52752 0.958791,-2.26893 0.369774,-0.80367 0.262459,-0.39069 0.671963,-1.15668 0.105452,-0.19726 0.185425,-0.40712 0.27814,-0.61067 0.602761,-1.32445 1.159015,-2.66657 1.821252,-3.96316 0.693401,-1.50963 1.69078,-2.87267 2.10445,-4.50779 0.538875,-1.59336 0.127741,-0.30424 0.575996,-1.92324 0.234219,-0.84596 0.565949,-1.71835 0.649504,-2.59903 0.02175,-0.22931 -0.01056,-0.46056 -0.01582,-0.69084 -0.16143,-2.16788 0.601432,-0.89184 4.670179,-3.20794 0.107886,-0.0614 -0.199853,0.1544 -0.269174,0.25738 -0.170812,0.25376 -0.413014,0.90268 -0.519575,1.16762 -0.242578,0.61282 -0.383628,1.23979 -0.607182,1.85961 -0.422529,1.17147 -0.08745,0.19633 -0.556295,1.3642 -0.09749,0.24285 -0.182028,0.49071 -0.273042,0.73606 -0.544613,1.42239 -0.828402,2.94606 -1.207479,4.4184 -0.433122,1.36736 -1.29445,2.53602 -1.713809,3.90955 -0.542568,1.27008 -1.016034,2.57069 -1.52921,3.8523 0,0 -5.042791,2.46539 -5.042791,2.46539 z"
       inkscape:connector-curvature="0" />
    <path
       style="display:inline;opacity:1;fill:#0a0702;fill-opacity:1;stroke:#3d5a98;stroke-width:0;stroke-miterlimit:4;stroke-dasharray:none;stroke-opacity:1"
       id="path4531"
       d="m 124.02386,152.47031 c 0.77572,-0.84318 1.40249,-1.79292 2.05101,-2.73179 0.71575,-0.91163 1.1414,-1.99468 1.69809,-3.00084 0.5635,-1.09944 1.1109,-2.21127 1.61455,-3.34019 0.61409,-1.27986 1.12137,-2.60511 1.71102,-3.89594 0.43864,-1.22714 1.07813,-2.36181 1.64442,-3.53093 0.51027,-1.08332 1.23396,-2.01736 2.08892,-2.84534 1.92464,-1.61053 4.26283,-2.70456 6.44878,-3.86984 0.22066,-0.11763 0.48524,-0.12339 0.72175,-0.20458 0.53224,-0.18272 1.04616,-0.415 1.57038,-0.61956 1.16079,-0.25502 2.42628,-0.67374 3.63382,-0.48274 0.22003,0.0348 0.42953,0.11832 0.64429,0.17747 1.44514,0.36852 2.12293,1.11079 3.03017,2.21771 0.9648,1.1003 1.80528,2.28409 2.61808,3.4988 0.90109,1.30206 1.73568,2.64939 2.5879,3.98444 0.64677,1.26015 1.23536,2.54629 1.87299,3.81111 0.4695,1.14049 0.97775,2.26543 1.34275,3.44502 0.27496,1.21081 0.81812,2.32843 1.21186,3.49917 0.543,1.80835 1.43453,3.47422 2.53914,4.99769 1.17088,1.35606 2.21429,2.86621 3.7748,3.79776 1.02024,0.48179 2.16237,0.59131 3.27415,0.4852 1.09374,-0.48129 2.22413,-0.90269 3.34976,-1.31048 1.90596,-1.17547 0.55646,-0.33606 -3.7655,2.14251 -0.16185,0.0928 0.32614,-0.18176 0.48356,-0.28191 0.44305,-0.28184 0.83477,-0.63246 1.25114,-0.9507 1.00154,-0.68272 2.03714,-1.31186 3.02563,-2.01336 0.94144,-0.65312 1.88718,-1.32521 2.64391,-2.1919 0.76939,-0.91726 1.29773,-1.99524 1.85522,-3.04597 0.4225,-0.8052 0.65201,-1.67911 0.76477,-2.57625 0,0 5.01073,-2.44324 5.01073,-2.44324 v 0 c -0.21044,0.93155 -0.31491,1.89137 -0.75167,2.7582 -0.55214,1.06553 -1.06936,2.16109 -1.7875,3.12769 -0.69405,0.97014 -1.64227,1.69915 -2.6298,2.35325 -0.96958,0.70471 -1.96535,1.35856 -2.97341,2.00666 -0.47712,0.2893 -0.80901,0.66113 -1.24988,0.99039 -0.14844,0.11085 -0.31746,0.19113 -0.47793,0.28371 -5.30282,3.05944 -3.39023,2.16312 -5.73699,3.23848 -1.13355,0.44631 -2.27615,0.91089 -3.4647,1.18139 -1.20049,0.007 -2.39965,-0.14664 -3.44226,-0.78931 -1.52281,-1.07943 -2.55566,-2.64918 -3.79365,-4.02351 -1.10995,-1.57841 -2.07328,-3.2516 -2.70338,-5.08335 -0.41744,-1.16988 -0.97503,-2.28805 -1.25247,-3.50553 -0.32711,-1.16099 -0.84604,-2.24752 -1.28155,-3.36933 -0.61721,-1.25666 -1.18243,-2.53379 -1.80093,-3.78949 -0.83039,-1.33986 -1.71352,-2.64897 -2.58316,-3.96254 -0.83131,-1.18576 -1.65157,-2.367 -2.63591,-3.43492 -0.78949,-0.97291 -1.56199,-1.65561 -2.83094,-1.90685 -1.36281,-0.21346 -2.73612,0.0886 -4.03127,0.52288 -1.06525,0.41483 -0.52806,0.20812 -1.61164,0.61994 -0.22982,0.0889 -0.89626,0.40249 -0.6876,0.27141 7.39713,-4.64652 4.52857,-2.71372 2.93733,-1.65278 -0.85232,0.79228 -1.64134,1.61418 -2.18297,2.65937 -0.52822,1.19229 -1.24462,2.29135 -1.66181,3.5331 -0.57567,1.28897 -1.13385,2.58142 -1.69072,3.87951 -0.49325,1.14925 -1.07047,2.25868 -1.58952,3.3955 -0.60026,1.00045 -0.98415,2.1096 -1.66782,3.06154 -0.70131,0.85375 -1.18309,1.87364 -1.94735,2.68593 0,0 -5.16859,2.22734 -5.16859,2.22734 z"
       inkscape:connector-curvature="0" />
    <path
       style="display:inline;opacity:1;fill:#0a0702;fill-opacity:1;stroke:#3d5a98;stroke-width:0;stroke-miterlimit:4;stroke-dasharray:none;stroke-opacity:1"
       id="path4541"
       d="m 179.83342,146.40423 c 2.1302,-1.83566 4.77245,-2.9815 7.13503,-4.4429 1.35766,-0.8398 -2.77494,1.57919 -4.16241,2.36879 2.07384,-1.4159 1.04152,-0.72859 5.70231,-3.35364 0.43766,-0.24651 1.0941,-0.42373 1.59832,-0.37739 0.19963,0.0183 0.39004,0.0928 0.58506,0.13926 1.36437,0.45301 2.26322,1.54723 3.1643,2.60228 0.90518,1.29573 1.75587,2.6274 2.64351,3.93753 0.89377,1.52461 1.3189,3.2161 1.62986,4.93716 0.29165,1.42862 0.20124,2.86739 0.0954,4.3073 0.0116,1.20086 -0.33257,2.34096 -0.59092,3.50005 -0.3107,1.17885 -0.4874,2.37848 -0.87887,3.53419 -0.40998,1.27712 -0.79755,2.55853 -1.20952,3.83554 -0.39294,1.38444 -1.0249,2.67772 -1.76446,3.90599 -0.62955,1.13906 -1.37468,2.21401 -2.27399,3.15571 -2.35151,1.84744 -4.93042,3.63873 -7.76671,4.59029 -1.90371,0.6136 -3.90832,0.74925 -5.88283,0.97419 -2.37352,0.18877 -4.7339,0.45368 -7.09381,0.7693 -2.24626,0.23939 -4.4991,0.41614 -6.75061,0.60328 -2.47977,0.14784 -4.93474,0.55334 -7.41204,0.75921 -2.15712,0.17299 -4.32017,0.20542 -6.48292,0.21622 -1.85022,0.0412 -3.62988,0.54934 -5.454,0.80835 -2.184,0.17702 -4.32337,0.60819 -6.48088,0.96625 -2.19397,0.36421 -4.29635,1.10967 -6.4709,1.56154 -1.1204,0.14951 -2.22347,0.39687 -3.33914,0.57568 -0.40478,0.0649 -0.81612,0.0923 -1.21668,0.1795 -0.15922,0.0347 -1.91692,0.57801 -2.09831,0.63373 -1.85626,0.59342 -3.7917,0.80049 -5.71537,1.04504 -1.60184,0.30291 -3.25816,0.12629 -4.85042,0.44518 -1.43502,0.33083 -2.90143,0.47373 -4.35367,0.70633 -1.45267,0.24498 -2.92532,0.26763 -4.39385,0.30296 -1.7994,0.0935 -3.58821,-0.0834 -5.38166,-0.19723 -2.164936,-0.0641 -4.319636,-0.27976 -6.47939,-0.4298 -2.122596,-0.0933 -4.215329,-0.49544 -6.329101,-0.70297 -1.478584,-0.0679 -2.945945,-0.21855 -4.417978,-0.36578 -1.860992,-0.12072 -3.702349,-0.45213 -5.54397,-0.74708 -1.945886,-0.3208 -3.913053,-0.46424 -5.88137,-0.5472 -1.896407,0.0221 -3.759168,-0.35749 -5.640732,-0.55192 -2.216655,-0.14169 -4.426442,-0.36691 -6.643375,-0.50575 -2.022639,-0.35858 -4.050503,-0.63569 -6.09968,-0.77993 -2.252194,-0.32716 -4.547402,-0.22113 -6.794841,-0.54929 -1.644965,-0.35461 -3.322056,-0.47454 -4.987047,-0.68351 -2.021247,-0.17616 -4.00595,-0.5948 -6.017204,-0.85567 -1.059738,-0.2147 -2.173502,-0.0785 -3.229748,-0.30626 -0.247271,-0.0533 -1.055261,-0.3377 -1.307994,-0.42433 -1.395566,-0.51242 -2.888186,-0.54193 -4.346871,-0.71465 -1.891328,-0.15361 -3.764196,-0.5006 -5.574837,-1.06894 -1.736634,-0.60715 -3.537505,-0.98776 -5.234172,-1.70121 -1.403781,-0.48755 -2.472406,-1.48318 -3.47703,-2.53663 -1.065399,-1.08983 -1.260115,-2.55073 -1.419587,-3.99915 -0.01069,-0.39396 -0.05246,-0.95742 0.03208,-1.35656 0.07452,-0.35184 0.270475,-0.82301 0.600812,-1.02378 4.980541,-3.02708 3.360157,-2.66136 6.020618,-3.12407 1.861675,-0.27651 3.721667,-0.0358 5.570719,0.19853 2.086709,0.50424 4.162197,1.05229 6.246438,1.56911 1.870986,0.47729 3.794419,0.63149 5.716572,0.71118 1.720948,0.20543 3.437459,0.3257 5.168299,0.23006 1.728767,-0.17003 3.454006,-0.071 5.182984,0.0165 1.454161,0.079 2.910012,0.11935 4.366146,0.13338 1.268413,0.0418 2.524398,0.0178 3.785825,-0.11237 1.27267,-0.14591 2.550234,-0.25682 3.830114,-0.17304 1.502965,0.15183 3.011072,0.22718 4.520321,0.27716 2.090529,-0.0163 4.164359,0.29969 6.229019,0.60055 1.966728,0.31345 3.950743,0.46718 5.938907,0.54685 1.890125,-0.0621 3.745259,0.31291 5.615381,0.52874 1.422988,0.16234 2.854439,0.21786 4.285533,0.23666 1.415055,-0.002 2.827229,-0.1752 4.239363,-0.27401 1.540196,-0.11338 3.083918,-0.0732 4.626415,-0.0627 2.356426,0.13995 4.685709,-0.24422 7.023393,-0.47075 2.119428,-0.48719 4.233888,-0.98647 6.377098,-1.35911 1.96043,-0.55841 3.97709,-0.85983 5.98123,-1.21073 1.64403,-0.27017 3.30664,-0.35096 4.96923,-0.395 0.8543,-0.22346 1.77465,-0.26963 2.60563,-0.58422 0.39783,-0.15062 0.76762,-0.36711 1.15626,-0.54005 1.18077,-0.45951 2.26519,-1.09812 3.42684,-1.60691 0.18102,-0.11132 0.72784,-0.43886 0.54304,-0.33394 -1.37866,0.78274 -2.74785,1.58207 -4.12495,2.36758 -0.18724,0.1068 0.36768,-0.22526 0.55529,-0.33142 1.76258,-0.99735 3.50638,-2.02934 5.2951,-2.97901 0.2041,-0.10835 0.45022,-0.10837 0.66761,-0.1867 0.20731,-0.0747 0.40196,-0.18071 0.60294,-0.27106 1.0473,-0.60148 2.23732,-0.81222 3.34594,-1.24145 1.10528,-0.39202 2.25175,-0.69835 3.40523,-0.91446 1.2211,-0.13912 2.28537,-0.79538 3.36712,-1.32543 2.39402,-1.31499 -2.42909,1.40784 -3.66223,2.0783 -0.17339,0.0943 0.32096,-0.22982 0.47905,-0.34797 0.4402,-0.32899 0.82932,-0.6978 1.22791,-1.07499 1.01361,-0.97822 1.99533,-1.98852 2.998,-2.97774 0,0 5.05571,-2.07844 5.05571,-2.07844 v 0 c -1.02897,0.93725 -1.96541,1.97382 -2.93382,2.96934 -0.42966,0.3612 -0.77317,0.7896 -1.21669,1.13406 -1.91486,1.48719 -4.09344,2.61907 -6.24457,3.73312 -1.10064,0.55661 -2.23054,1.06754 -3.46745,1.22469 -1.13603,0.26194 -2.26779,0.5572 -3.35923,0.97086 -1.12872,0.35791 -2.24045,0.73944 -3.31121,1.25288 -0.20687,0.0787 -0.41415,0.15627 -0.62061,0.236 -0.21263,0.0821 -0.83028,0.36972 -0.63664,0.2495 1.35918,-0.84382 2.7622,-1.6149 4.14149,-2.42542 0.18756,-0.11022 -0.37815,0.21519 -0.56624,0.32449 -5.53478,3.2162 -3.45981,2.13682 -5.85484,3.36803 -1.14695,0.5251 -2.24158,1.15691 -3.42582,1.59977 -1.23019,0.52813 -2.52495,0.83955 -3.86352,0.93711 -1.63343,0.049 -3.26742,0.14592 -4.88021,0.42559 -1.99662,0.33928 -3.99018,0.68434 -5.95223,1.1941 -2.133062,0.39929 -4.242387,0.90722 -6.375291,1.30387 -2.355421,0.23559 -4.706027,0.53652 -7.079715,0.44976 -1.564159,0.0241 -3.128783,0.0638 -4.690748,0.15239 -1.430097,0.0938 -2.858005,0.27857 -4.292788,0.25065 -1.418037,-0.0493 -2.834121,-0.1404 -4.24053,-0.33649 -1.850916,-0.25003 -3.700634,-0.51751 -5.573569,-0.50354 -1.990024,-0.0862 -3.965752,-0.28928 -5.931413,-0.61811 -2.077607,-0.2893 -4.165159,-0.54093 -6.266797,-0.50018 -1.524426,-0.0435 -3.044785,-0.14199 -4.565779,-0.2509 -1.266645,-0.0184 -2.527623,0.10988 -3.78723,0.23344 -1.276382,0.10994 -2.555412,0.10331 -3.835596,0.0718 -1.436825,-0.0399 -2.87233,-0.10584 -4.306763,-0.19905 -1.72997,-0.0943 -3.455062,-0.094 -5.18355,0.0436 -1.734413,0.0301 -3.457041,-0.13448 -5.184174,-0.2795 -1.919936,-0.12874 -3.842184,-0.33135 -5.702777,-0.84598 -2.074472,-0.51655 -4.145165,-1.06085 -6.237863,-1.49374 -1.835911,-0.20814 -3.6976,-0.40651 -5.522396,0.009 -2.245015,0.72356 -0.756852,0.30138 3.455957,-2.26263 0.154777,-0.0942 -0.341262,0.13818 -0.480533,0.25408 -0.493766,0.41091 -0.413267,1.08824 -0.429819,1.65507 0.127691,1.33276 0.287036,2.66169 1.258356,3.67177 0.971766,0.99445 1.983661,1.90269 3.327069,2.36536 1.676411,0.68057 3.436654,1.1161 5.149936,1.69417 1.811379,0.52858 3.682681,0.79555 5.560974,0.95744 1.50436,0.15622 3.032046,0.22849 4.461039,0.77666 1.427911,0.4651 2.912092,0.5001 4.391626,0.71116 2.011203,0.30975 4.016975,0.66009 6.047718,0.81799 1.667005,0.18098 3.328908,0.36911 4.973683,0.70857 2.23352,0.30273 4.499811,0.31328 6.741932,0.54284 2.044777,0.15691 4.065241,0.45861 6.08938,0.78171 2.219365,0.1499 4.4328,0.37316 6.652043,0.52435 1.896404,0.19457 3.785264,0.48468 5.696072,0.47731 1.957853,0.11289 3.903726,0.35966 5.843603,0.64366 1.867236,0.28369 3.740142,0.53979 5.626476,0.65405 1.456812,0.15417 2.916454,0.2564 4.373848,0.40366 2.082295,0.26608 4.15417,0.66114 6.256544,0.72111 2.162405,0.11705 4.314605,0.38066 6.481845,0.42574 1.81186,0.0959 3.62388,0.17605 5.43857,0.10006 1.45859,-0.0398 2.91659,-0.12809 4.35842,-0.3642 1.45697,-0.21953 2.91788,-0.41188 4.36156,-0.71098 1.59435,-0.17294 3.20814,-0.14076 4.79715,-0.38934 1.90083,-0.25101 3.80621,-0.50655 5.63913,-1.09519 2.19259,-0.62786 4.44839,-0.93237 6.68578,-1.36276 2.15686,-0.49026 4.27001,-1.17531 6.45879,-1.52112 2.16989,-0.37446 4.33596,-0.75378 6.52677,-0.99035 1.82087,-0.30022 3.62079,-0.78302 5.48194,-0.73211 2.14008,-0.022 4.28203,-0.0549 6.41681,-0.21918 2.48838,-0.21815 4.95679,-0.60646 7.44839,-0.78355 2.2353,-0.17869 4.47221,-0.35188 6.70108,-0.59764 2.37117,-0.29358 4.7393,-0.57987 7.12037,-0.78101 2.00441,-0.2386 4.04137,-0.42105 5.93318,-1.18067 2.00889,-0.8516 0.70792,-0.3268 -3.6502,2.22712 -0.17513,0.10262 0.35324,-0.20047 0.52412,-0.31004 0.49232,-0.31568 0.92632,-0.71098 1.44079,-0.99268 0.95048,-0.87985 1.76689,-1.90587 2.37133,-3.05608 0.75457,-1.17192 1.42154,-2.42184 1.79763,-3.76736 0.38812,-1.29069 0.85362,-2.5549 1.21583,-3.85399 0.0608,-0.17836 0.33514,-0.96495 0.38564,-1.18023 0.17727,-0.75573 0.22849,-1.54482 0.48807,-2.28368 0.24765,-1.14414 0.64433,-2.25536 0.63344,-3.43948 0.13261,-1.40699 0.29214,-2.81685 0.0397,-4.2229 -0.25811,-1.66283 -0.69174,-3.25896 -1.55555,-4.72067 -0.83326,-1.31708 -1.71056,-2.60272 -2.61535,-3.86969 -0.84096,-0.96147 -1.66749,-1.98177 -2.98888,-2.24339 -0.55655,-0.0131 -0.97308,0.0576 -1.48875,0.28303 -0.16138,0.0705 -0.62403,0.32614 -0.47267,0.2361 4.95215,-2.94558 5.49156,-3.3275 3.71619,-2.12396 -11.49414,6.79303 -3.14653,1.84716 -1.1213,0.69192 0.18899,-0.1078 -0.36046,0.24376 -0.5416,0.36429 -1.75826,1.16993 0.59526,-0.43767 -0.90984,0.68819 -0.0962,0.072 -0.20822,0.1199 -0.31233,0.17985 0,0 -5.20932,2.15777 -5.20932,2.15777 z"
       inkscape:connector-curvature="0" />
    <path
       style="display:inline;opacity:1;fill:#0a0702;fill-opacity:1;stroke:#3d5a98;stroke-width:0;stroke-miterlimit:4;stroke-dasharray:none;stroke-opacity:1"
       id="path4543"
       d="m 139.93725,157.47607 c 0.41491,-1.25355 1.30163,-2.26869 2.10713,-3.28811 1.06268,-1.25932 2.23512,-2.41774 3.34438,-3.63555 1.13932,-1.23282 2.24746,-2.48577 3.2655,-3.82011 0.80924,-1.00433 1.51807,-2.09034 2.35434,-3.07207 0.96941,-0.95919 2.01654,-1.83151 2.96738,-2.81016 0.98077,-1.03031 1.98511,-2.03749 2.9841,-3.05008 0.77366,-0.77101 1.49261,-1.60488 2.3709,-2.25924 1.12984,-0.75505 2.15209,-1.65013 3.1502,-2.56806 1.0235,-1.10764 2.00685,-2.25456 2.97266,-3.41304 0.17574,-0.21932 0.35148,-0.43865 0.52722,-0.65797 0,0 5.00354,-2.1384 5.00354,-2.1384 v 0 c -0.17501,0.22017 -0.35002,0.44035 -0.52504,0.66053 -0.93241,1.19218 -1.95975,2.30221 -2.91727,3.47396 -0.97638,0.9182 -1.95585,1.84054 -3.05587,2.61195 -0.0611,0.0402 -0.79211,0.51857 -0.84928,0.56622 -0.57592,0.48007 -0.99902,1.13909 -1.59741,1.59969 -0.95281,1.07538 -2.06239,2.01036 -3.03671,3.06867 -0.88764,1.0125 -1.9015,1.88357 -2.88969,2.79367 -0.50856,0.4544 -0.71663,0.86337 -1.12766,1.38716 -0.13115,0.16712 -0.30063,0.30144 -0.43331,0.46735 -0.30804,0.38523 -0.52749,0.83718 -0.87833,1.19086 -0.67155,0.82516 -0.34606,0.39182 -0.97241,1.30308 -0.71141,0.89404 -1.58753,1.65996 -2.29008,2.56355 -1.12552,1.19016 -2.21818,2.40863 -3.35843,3.5856 -0.7205,0.97076 -1.56057,1.86627 -2.05296,2.98547 0,0 -5.0629,2.45503 -5.0629,2.45503 z"
       inkscape:connector-curvature="0" />
  </g>
  <g
     inkscape:groupmode="layer"
     id="layer2"
     inkscape:label="Bezier"
     style="display:inline"
     transform="translate(-8.0316985,-95.818136)">
    <path
       style="fill:none;stroke:#ffffff;stroke-width:5;stroke-linecap:butt;stroke-linejoin:miter;stroke-miterlimit:4;stroke-dasharray:none;stroke-opacity:1;fill-opacity:1;opacity:1"
       d="m 83.002903,107.62666 c 0,0 -13.885681,-19.194684 -36.104914,-2.6331 -11.837297,8.82318 -22.895591,24.55935 -22.895591,40.43435 0,15.875 15.875,10.58334 15.875,10.58334 0,0 27.837584,-13.02401 43.125505,-48.38459 9.373909,-21.681624 -16.85707,33.26918 -16.85707,33.26918 0,0 -5.291667,15.875 5.291666,15.875 10.583334,0 23.432706,-29.28134 23.432706,-29.28134 l -10.203538,18.698 c 0,0 -2.515156,6.80974 1.696344,10.01365 2.368313,1.8017 15.535369,2.30133 22.495959,-10.20355 l 10.20353,-18.33093 c 0,0 -11.33019,20.6097 -8.68435,25.90137 2.36651,4.73301 4.42718,3.20279 4.42718,3.20279 0,0 7.25024,0.1643 13.22916,-12.92088 4.86074,-10.63798 10.70681,-16.78733 14.63787,-12.01827 5.34858,6.48875 7.8921,28.80721 18.72347,24.93916 5.73083,-2.04657 6.7587,-5.32466 11.12756,-7.16518 6.95825,-3.14419 9.48214,1.26561 7.1397,5.0763 -3.95058,6.42683 -26.86691,19.3744 -76.2857,22.11616 -27.060759,1.50133 -152.084909,-2.97143 -58.778019,-9.82375 46.980848,-3.45021 85.605119,2.85067 95.231369,-10.66298"
       id="path4546"
       inkscape:connector-curvature="0"
       sodipodi:nodetypes="csscscsccsscscssscsssc" />
  </g>
  <g
     inkscape:groupmode="layer"
     id="layer4"
     inkscape:label="Aux cord"
     style="display:inline"
     transform="translate(-8.0316985,-95.818136)">
    <rect
       style="opacity:1;fill:#ee3b3b;fill-opacity:1;stroke:none;stroke-width:1.03921211;stroke-miterlimit:4;stroke-dasharray:none;stroke-opacity:1"
       id="rect4557"
       width="9.7858047"
       height="9.2708168"
       x="200.05869"
       y="34.679424"
       transform="rotate(36.167113)" />
    <rect
       style="opacity:1;fill:#ee3b3b;fill-opacity:1;stroke:none;stroke-width:0.69622689;stroke-miterlimit:4;stroke-dasharray:none;stroke-opacity:1"
       id="rect4559"
       width="9.7858047"
       height="2.7740858"
       x="200.05869"
       y="30.863602"
       transform="rotate(36.167113)" />
    <rect
       style="opacity:1;fill:#ee3b3b;fill-opacity:1;stroke:none;stroke-width:0.95266014;stroke-miterlimit:4;stroke-dasharray:none;stroke-opacity:1"
       id="rect4561"
       width="9.7858047"
       height="18.178682"
       x="200.05869"
       y="11.455801"
       transform="rotate(36.167113)" />
    <rect
       style="opacity:1;fill:#ffd700;fill-opacity:1;stroke:none;stroke-width:0.64066631;stroke-miterlimit:4;stroke-dasharray:none;stroke-opacity:1"
       id="rect4563"
       width="3.1370268"
       height="14.655158"
       x="203.38307"
       y="-3.1993454"
       transform="rotate(36.167113)" />
    <rect
       y="-149.54158"
       x="140.25443"
       height="2.185621"
       width="2.185621"
       id="rect4565"
       style="opacity:1;fill:#ffd700;fill-opacity:1;stroke:none;stroke-width:0.20651536;stroke-miterlimit:4;stroke-dasharray:none;stroke-opacity:1"
       transform="rotate(81.167113)" />
    <rect
       transform="rotate(81.167113)"
       style="opacity:1;fill:#ffd700;fill-opacity:1;stroke:none;stroke-width:0.20959522;stroke-miterlimit:4;stroke-dasharray:none;stroke-opacity:1"
       id="rect4567"
       width="2.2182162"
       height="2.2182162"
       x="141.56757"
       y="-148.27776" />
    <rect
       style="opacity:1;fill:#000000;fill-opacity:1;stroke:none;stroke-width:0.66795838;stroke-miterlimit:4;stroke-dasharray:none;stroke-opacity:1"
       id="rect4569"
       width="3.138628"
       height="0.64141989"
       x="203.38147"
       y="-2.0016582"
       transform="rotate(36.167113)" />
    <rect
       y="0.75535321"
       x="203.38397"
       height="0.64170223"
       width="3.138628"
       id="rect4571"
       style="opacity:1;fill:#000000;fill-opacity:1;stroke:none;stroke-width:0.66810536;stroke-miterlimit:4;stroke-dasharray:none;stroke-opacity:1"
       transform="rotate(36.167113)" />
    <rect
       transform="rotate(36.167113)"
       y="11.455801"
       x="200.05869"
       height="18.178682"
       width="9.7858047"
       id="rect4584"
       style="opacity:1;fill:#ee3b3b;fill-opacity:1;stroke:none;stroke-width:0.95266014;stroke-miterlimit:4;stroke-dasharray:none;stroke-opacity:1" />
    <rect
       style="opacity:1;fill:#ee3b3b;fill-opacity:1;stroke:none;stroke-width:0.95266014;stroke-miterlimit:4;stroke-dasharray:none;stroke-opacity:1"
       id="rect4512"
       width="9.7858047"
       height="18.178682"
       x="200.05869"
       y="11.455801"
       transform="rotate(36.167113)" />
  </g>
</svg>
