<?xml version="1.0" standalone="no"?>
<!DOCTYPE svg PUBLIC "-//W3C//DTD SVG 20010904//EN"
 "http://www.w3.org/TR/2001/REC-SVG-20010904/DTD/svg10.dtd">
<svg version="1.0" xmlns="http://www.w3.org/2000/svg"
 width="1240.000000pt" height="1240.000000pt" viewBox="0 0 1240.000000 1240.000000"
 preserveAspectRatio="xMidYMid meet">
<metadata>
Created by potrace 1.11, written by Peter Selinger 2001-2013
</metadata>
<g transform="translate(0.000000,1240.000000) scale(0.100000,-0.100000)"
fill="#000000" stroke="none">
<path d="M10909 12396 c-2 -2 -26 -7 -54 -10 -47 -6 -93 -14 -140 -22 -11 -2
-38 -6 -60 -9 -22 -3 -51 -8 -65 -10 -14 -3 -41 -8 -60 -10 -19 -3 -48 -7 -65
-9 -142 -21 -135 -19 -131 -44 2 -9 11 -66 20 -127 10 -60 19 -121 22 -135 14
-81 14 -87 2 -87 -20 0 -111 -13 -128 -18 -8 -3 -35 -7 -60 -9 -25 -3 -55 -7
-66 -10 -12 -2 -39 -7 -60 -11 -38 -5 -83 -44 -84 -72 0 -6 -4 -13 -8 -15 -4
-1 -21 -21 -37 -43 -17 -22 -33 -44 -38 -50 -4 -5 -21 -28 -37 -50 -16 -22
-33 -45 -37 -50 -23 -30 -80 -108 -121 -166 -26 -37 -55 -77 -64 -90 -10 -13
-49 -67 -88 -119 -38 -52 -104 -142 -147 -200 -43 -58 -115 -157 -160 -220
-45 -63 -86 -120 -90 -125 -4 -6 -21 -28 -38 -50 -16 -22 -33 -41 -37 -43 -4
-2 -8 -8 -8 -14 0 -9 -14 -28 -60 -85 -6 -7 -10 -17 -10 -23 0 -5 -4 -10 -9
-10 -5 0 -20 -17 -32 -37 -13 -21 -25 -40 -29 -43 -11 -10 -94 -125 -94 -130
0 -3 -8 -14 -19 -25 -10 -11 -32 -41 -49 -67 -17 -27 -35 -48 -40 -48 -4 0 -8
-7 -8 -15 0 -9 -7 -18 -15 -21 -8 -4 -15 -10 -15 -15 0 -5 -16 -30 -36 -56
-20 -27 -44 -59 -54 -73 -10 -14 -33 -45 -52 -70 -18 -25 -44 -62 -58 -82 -14
-21 -28 -38 -32 -38 -5 0 -8 -7 -8 -15 0 -8 -4 -15 -8 -15 -4 0 -21 -20 -36
-45 -16 -25 -33 -45 -38 -45 -5 0 -7 -4 -4 -9 4 -5 3 -11 -2 -13 -4 -1 -37
-43 -72 -93 -36 -49 -70 -97 -77 -105 -30 -39 -82 -110 -113 -155 -19 -27 -44
-61 -57 -75 -13 -14 -23 -30 -23 -37 0 -7 -4 -13 -8 -13 -4 0 -24 -24 -42 -54
-19 -30 -38 -52 -42 -50 -5 3 -8 0 -8 -6 0 -9 -93 -144 -110 -160 -3 -3 -18
-23 -33 -46 -15 -22 -36 -50 -46 -61 -10 -11 -26 -33 -34 -49 -8 -16 -24 -38
-34 -49 -10 -11 -34 -41 -52 -67 -19 -27 -35 -48 -36 -48 -2 0 -104 75 -120
87 -5 5 -26 19 -45 33 -19 13 -37 27 -40 30 -3 3 -27 22 -55 41 -27 18 -58 42
-69 52 -11 9 -23 17 -26 17 -4 0 -18 9 -31 20 -38 32 -42 34 -94 70 -27 19
-56 40 -65 47 -65 52 -193 143 -200 143 -4 0 -10 5 -12 11 -2 5 -26 -21 -53
-58 -27 -37 -52 -70 -55 -73 -3 -3 -9 -13 -15 -22 -12 -19 -445 -614 -460
-631 -6 -7 -53 -70 -105 -142 -52 -71 -97 -132 -100 -135 -3 -3 -16 -22 -29
-42 -12 -21 -27 -38 -32 -38 -6 0 -8 -4 -5 -9 4 -5 3 -11 -2 -13 -4 -1 -68
-86 -142 -188 -245 -337 -309 -425 -323 -440 -7 -8 -24 -32 -37 -52 -14 -21
-28 -38 -32 -38 -5 0 -8 -6 -8 -13 0 -7 -10 -24 -22 -37 -12 -13 -37 -46 -57
-74 -19 -28 -38 -55 -43 -61 -28 -36 -57 -76 -82 -113 -16 -23 -39 -53 -52
-67 -13 -14 -21 -25 -19 -25 4 0 -34 -54 -78 -110 -7 -9 -25 -33 -41 -55 -17
-22 -34 -43 -39 -46 -5 -3 -9 -10 -10 -15 -1 -12 -137 -197 -151 -206 -7 -5
-7 -8 -1 -8 7 0 7 -3 0 -8 -12 -8 -63 -76 -88 -115 -10 -16 -25 -36 -34 -45
-14 -16 -154 -207 -191 -262 -9 -14 -24 -30 -32 -37 -8 -7 -10 -13 -5 -13 6 0
6 -3 -1 -8 -17 -11 -99 -126 -96 -134 1 -5 -2 -8 -6 -8 -5 0 -35 -37 -67 -82
-33 -46 -64 -88 -70 -95 -5 -6 -21 -28 -35 -48 -14 -20 -36 -51 -50 -69 -14
-19 -32 -44 -40 -56 -28 -41 -99 -135 -118 -155 -6 -8 -12 -16 -12 -19 0 -3
-16 -27 -36 -53 -71 -94 -80 -106 -126 -172 -27 -36 -48 -68 -48 -72 0 -4 16
-17 35 -30 19 -13 35 -27 35 -31 0 -5 6 -8 13 -8 7 0 23 -9 35 -20 12 -11 25
-20 31 -20 5 0 11 -3 13 -8 1 -4 37 -32 78 -62 41 -30 77 -57 80 -60 3 -3 28
-21 55 -40 28 -19 59 -42 69 -52 11 -10 23 -18 26 -18 4 0 18 -9 31 -21 22
-20 101 -77 173 -125 17 -12 37 -29 45 -38 7 -9 19 -16 27 -16 7 0 19 -8 26
-18 7 -10 20 -21 28 -24 8 -3 58 -38 110 -77 52 -39 104 -78 115 -85 11 -8 49
-36 85 -63 36 -26 102 -75 148 -107 45 -33 82 -63 82 -68 0 -5 5 -6 10 -3 6 3
10 2 10 -4 0 -5 8 -12 18 -15 9 -3 29 -17 45 -31 15 -14 27 -22 27 -18 0 4 5
0 11 -9 5 -10 17 -18 24 -18 8 0 15 -4 15 -8 0 -4 18 -19 40 -32 22 -14 40
-28 40 -32 0 -5 6 -8 14 -8 8 0 16 -4 18 -9 3 -8 81 -66 246 -183 39 -29 72
-55 72 -60 0 -4 4 -8 10 -8 5 0 74 -47 152 -105 79 -58 145 -105 148 -105 5 0
95 122 139 189 13 20 30 41 36 46 7 6 21 26 33 45 11 19 29 44 39 55 10 11 32
40 48 65 17 24 37 52 45 61 30 34 40 48 40 55 0 3 11 20 25 38 14 17 29 36 33
41 5 6 57 78 117 160 191 262 179 246 223 301 17 23 32 46 32 52 0 5 7 12 15
16 8 3 15 12 15 21 0 8 3 15 8 15 4 0 18 17 32 37 29 43 114 159 135 186 8 9
15 19 15 22 0 3 7 13 15 22 15 19 57 76 245 333 62 85 146 200 186 255 40 55
83 115 96 133 13 19 33 44 46 57 12 13 22 28 22 33 0 5 9 17 20 27 11 10 20
24 20 30 0 7 7 15 15 19 8 3 15 12 15 20 0 7 7 17 16 20 9 4 14 9 11 12 -3 4
-1 12 6 19 7 6 21 24 32 39 11 15 43 58 72 96 28 37 49 71 46 74 -4 3 -2 6 4
6 5 0 31 32 58 70 27 39 52 70 57 70 4 0 8 5 8 10 0 8 48 76 197 279 10 13 53
71 95 130 42 58 84 115 93 126 8 11 38 52 66 90 28 39 59 81 69 95 10 14 91
124 179 245 88 121 164 225 168 230 5 6 20 26 33 45 27 38 29 42 63 85 31 40
62 93 56 98 -2 2 -71 53 -154 112 -82 60 -151 112 -153 117 -2 4 -10 8 -17 8
-7 0 -15 3 -17 8 -1 4 -43 36 -93 72 -49 35 -91 68 -93 72 -2 4 -10 8 -18 8
-8 0 -14 3 -14 8 0 4 -43 36 -95 72 -77 53 -93 69 -88 85 3 11 9 22 12 25 4 3
24 30 46 60 22 30 43 57 47 58 5 2 8 8 8 14 0 5 6 16 13 23 21 25 32 39 65 87
18 25 38 52 44 60 7 7 26 33 43 58 16 25 32 47 35 50 3 3 23 30 45 60 22 30
43 57 47 58 5 2 8 8 8 13 0 6 5 15 11 22 9 11 109 145 183 247 18 25 54 73 79
108 26 34 47 64 47 67 0 5 16 25 63 80 15 18 27 35 27 39 0 8 93 130 102 134
5 2 8 10 8 18 0 8 5 14 11 14 5 0 7 5 4 10 -3 6 -2 10 2 10 5 0 26 25 48 56
22 31 64 87 93 125 28 38 52 73 52 78 0 5 3 11 8 13 4 2 32 37 62 78 30 41 59
80 65 87 5 7 16 19 23 27 6 8 12 17 12 20 0 3 36 54 80 113 44 59 87 117 94
128 8 11 38 51 65 88 28 37 51 71 51 74 0 4 7 13 16 22 8 9 42 52 74 96 33 44
63 85 68 90 4 6 16 24 26 40 11 17 24 35 30 41 6 7 40 53 76 103 36 51 90 125
120 165 30 41 62 84 70 96 8 13 29 39 45 60 17 21 48 63 70 94 60 86 222 309
235 324 6 7 9 16 6 21 -3 5 -8 30 -11 57 -3 27 -8 56 -10 64 -5 17 -11 52 -20
120 -4 25 -10 62 -15 83 -4 20 -5 37 -1 38 3 0 15 2 26 5 11 2 36 6 55 9 19 3
46 7 60 9 49 10 152 25 159 24 3 0 9 1 14 2 4 1 13 3 20 4 7 1 11 14 10 36 -1
19 -2 35 -3 35 -1 0 -3 9 -4 20 -2 11 -7 45 -11 75 -5 30 -10 64 -11 75 0 11
-4 27 -7 35 -4 8 -9 38 -11 65 -3 28 -8 66 -11 85 -4 19 -8 46 -9 60 -1 14 -4
30 -7 35 -3 6 -6 25 -8 44 -1 19 -4 38 -7 42 -5 9 -27 12 -35 5z"/>
<path d="M3454 4489 c-60 -82 -119 -162 -131 -177 -13 -15 -23 -33 -23 -40 0
-7 -4 -10 -10 -7 -5 3 -10 1 -10 -4 0 -13 -117 -172 -134 -183 -6 -4 -7 -8 -3
-8 4 0 -3 -15 -17 -33 -30 -39 -32 -47 -12 -47 8 0 16 -4 18 -9 2 -4 40 -35
85 -67 243 -176 368 -269 371 -276 2 -4 8 -8 13 -8 5 0 46 -28 92 -63 45 -34
94 -70 108 -79 14 -9 32 -23 40 -30 8 -7 41 -31 73 -53 33 -22 70 -49 82 -61
13 -11 44 -34 69 -49 25 -16 45 -33 45 -37 0 -4 4 -8 10 -8 5 0 18 -7 27 -14
22 -18 106 -79 172 -126 28 -19 50 -38 51 -42 0 -5 7 -8 15 -8 7 0 18 -6 22
-12 4 -7 16 -17 25 -23 21 -12 301 -217 308 -225 3 -3 31 -23 62 -44 32 -21
65 -46 75 -55 10 -10 33 -26 51 -36 17 -11 32 -23 32 -27 0 -4 6 -8 14 -8 8 0
16 -3 18 -7 3 -8 49 -43 176 -135 31 -23 73 -54 92 -68 19 -15 46 -33 59 -40
27 -14 27 -14 98 90 21 30 41 57 44 60 4 3 24 30 45 60 20 30 40 57 43 60 3 3
17 22 31 42 14 21 28 38 33 38 4 0 7 4 7 9 0 9 109 161 149 208 38 45 35 49
-70 128 -55 41 -104 75 -109 75 -6 0 -10 4 -10 10 0 5 -12 16 -27 24 -16 8
-37 23 -48 33 -11 10 -33 27 -50 37 -16 11 -34 23 -40 28 -5 5 -48 37 -95 71
-47 34 -86 65 -88 70 -2 4 -10 7 -18 7 -8 0 -17 7 -20 15 -4 8 -11 15 -16 15
-6 0 -24 11 -42 25 -43 35 -41 33 -141 105 -49 36 -97 70 -105 77 -62 48 -112
83 -119 83 -5 0 -11 3 -13 8 -1 4 -37 32 -78 62 -41 30 -79 58 -85 62 -88 66
-118 88 -160 117 -28 19 -52 37 -55 41 -3 3 -22 16 -42 30 -21 14 -38 28 -38
33 0 4 -7 7 -15 7 -8 0 -15 5 -15 10 0 6 -5 10 -11 10 -7 0 -19 8 -28 18 -9 9
-45 37 -81 61 -36 25 -66 48 -68 53 -2 4 -10 8 -18 8 -8 0 -14 3 -14 8 0 4
-17 18 -38 32 -20 14 -39 27 -42 31 -3 3 -27 21 -55 39 -27 19 -56 40 -65 46
-38 31 -111 84 -115 84 -5 0 -37 25 -60 48 -8 6 -18 12 -23 12 -6 0 -12 3 -14
8 -1 4 -19 19 -39 34 l-35 26 -110 -149z"/>
<path d="M2893 3722 c-15 -22 -35 -50 -43 -62 -8 -12 -25 -33 -37 -46 -13 -14
-23 -28 -23 -33 0 -4 -8 -16 -18 -27 -10 -10 -47 -59 -82 -109 -36 -49 -69
-95 -75 -102 -5 -7 -16 -19 -22 -27 -7 -8 -13 -18 -13 -21 0 -8 -102 -139
-112 -143 -4 -2 -6 -7 -4 -11 3 -4 -7 -20 -21 -37 -14 -16 -39 -49 -56 -74
-17 -25 -35 -49 -39 -55 -56 -71 -118 -157 -118 -164 0 -5 -3 -11 -8 -13 -4
-1 -32 -37 -62 -78 -30 -41 -58 -76 -62 -78 -5 -2 -8 -8 -8 -13 0 -5 -24 -40
-52 -78 -29 -37 -60 -78 -68 -90 -23 -34 -119 -164 -135 -184 -8 -9 -15 -21
-15 -26 0 -5 -3 -11 -8 -13 -4 -1 -29 -33 -55 -70 -26 -36 -53 -72 -60 -80 -6
-7 -24 -31 -39 -53 -14 -22 -33 -49 -42 -60 -9 -11 -68 -91 -131 -177 l-114
-158 37 -27 c20 -16 41 -32 47 -36 5 -4 51 -37 100 -73 50 -36 97 -70 105 -77
8 -7 39 -29 69 -51 30 -21 59 -42 65 -47 6 -5 36 -27 66 -48 30 -22 60 -44 65
-48 6 -4 93 -69 195 -142 102 -74 187 -137 190 -140 3 -3 12 -10 22 -16 9 -5
105 -75 213 -155 108 -80 207 -152 219 -160 37 -25 131 -94 136 -100 3 -3 22
-16 43 -29 20 -12 37 -27 37 -32 0 -5 5 -9 11 -9 6 0 16 -6 23 -13 8 -6 24
-19 36 -27 12 -8 52 -37 89 -64 36 -27 87 -64 113 -83 26 -18 56 -39 65 -47
51 -41 114 -86 122 -86 5 0 11 -3 13 -8 2 -4 28 -25 58 -47 30 -22 57 -42 60
-45 27 -29 39 -31 59 -9 11 12 18 26 15 31 -3 4 -1 8 3 8 5 0 40 43 79 96 38
53 79 108 91 122 13 15 23 30 23 34 0 4 6 13 13 20 7 7 28 35 47 63 19 27 45
61 58 75 12 13 22 30 22 37 0 7 4 13 9 13 5 0 18 15 29 33 11 17 27 41 36 52
9 11 41 54 70 95 30 41 59 80 63 85 5 6 30 42 58 80 27 39 51 72 55 75 3 3 28
37 55 75 27 39 53 72 57 73 4 2 8 10 8 17 0 7 3 15 8 17 4 1 25 28 47 58 22
30 43 60 48 65 33 42 167 228 167 232 0 2 6 11 13 18 19 22 30 37 57 75 13 19
28 40 33 45 16 20 163 222 187 258 14 20 28 37 33 37 4 0 7 5 7 11 0 6 6 16
13 24 6 7 21 25 32 41 11 15 37 50 57 77 41 55 39 72 -6 97 -14 7 -26 17 -26
22 0 4 -6 8 -14 8 -8 0 -16 4 -18 8 -3 7 -373 281 -415 307 -9 6 -23 16 -32
23 -14 12 -53 41 -142 104 -100 72 -195 144 -197 151 -2 4 -8 7 -13 7 -5 0
-46 28 -91 62 -46 34 -103 76 -128 94 -25 18 -54 40 -65 48 -80 62 -157 116
-165 116 -4 0 -10 3 -12 8 -1 4 -37 32 -78 62 -41 30 -80 59 -87 65 -27 23
-95 70 -99 68 -2 -1 -20 13 -41 32 -21 19 -44 35 -50 35 -7 0 -13 3 -13 8 0 4
-20 21 -45 37 -24 17 -45 33 -45 38 0 4 -7 7 -15 7 -8 0 -15 5 -15 10 0 6 -5
10 -12 10 -7 0 -21 9 -33 20 -31 30 -155 120 -166 120 -5 0 -9 4 -9 8 0 4 -12
15 -27 24 -16 9 -40 27 -56 40 -15 13 -40 32 -57 41 l-29 18 -28 -39z"/>
</g>
</svg>
